<svg width="320" height="1440" viewBox="0 0 320 1440" fill="none" xmlns="http://www.w3.org/2000/svg">
<g clip-path="url(#clip0)">
<path d="M96 0L112 14.1C128 28.2 160 56 197.3 85C235 112.9 277 141 288 169C299 197.6 277 226 240 254C203 282.4 149 311 128 339C107 367.1 117 395 144 424C171 451.8 213 480 234.7 508C256 536.5 256 565 213.3 593C171 621.2 85 649 74.7 678C64 705.9 128 734 138.7 762C149 790.6 107 819 122.7 847C139 875.3 213 904 213.3 932C213 960 139 988 138.7 1016C139 1044.7 213 1073 250.7 1101C288 1129.4 288 1158 261.3 1186C235 1214.1 181 1242 181.3 1271C181 1298.8 235 1327 229.3 1355C224 1383.5 160 1412 128 1426L96 1440H0V1425.9C0 1411.8 0 1384 0 1355C0 1327.1 0 1299 0 1271C0 1242.4 0 1214 0 1186C0 1157.6 0 1129 0 1101C0 1072.9 0 1045 0 1016C0 988.2 0 960 0 932C0 903.5 0 875 0 847C0 818.8 0 791 0 762C0 734.1 0 706 0 678C0 649.4 0 621 0 593C0 564.7 0 536 0 508C0 480 0 452 0 424C0 395.3 0 367 0 339C0 310.6 0 282 0 254C0 225.9 0 198 0 169C0 141.2 0 113 0 85C0 56.5 0 28 0 14V0L96 0Z" fill="#356EC7"/>
</g>
<defs>
<clipPath id="clip0">
<rect width="1440" height="320" fill="white" transform="translate(320) rotate(90)"/>
</clipPath>
</defs>
</svg>
